<svg xmlns="http://www.w3.org/2000/svg" viewBox="0 0 32 32">
  <!-- Dithered plus sign - Bayer 4x4 pattern, transparent background. Green/cream for favicon. -->
  <rect x="12" y="6" width="2" height="2" fill="#faf8f3"/>
  <rect x="14" y="6" width="2" height="2" fill="#166534"/>
  <rect x="16" y="6" width="2" height="2" fill="#faf8f3"/>
  <rect x="18" y="6" width="2" height="2" fill="#166534"/>
  <rect x="12" y="8" width="2" height="2" fill="#166534"/>
  <rect x="14" y="8" width="2" height="2" fill="#faf8f3"/>
  <rect x="16" y="8" width="2" height="2" fill="#166534"/>
  <rect x="18" y="8" width="2" height="2" fill="#faf8f3"/>
  <rect x="12" y="10" width="2" height="2" fill="#faf8f3"/>
  <rect x="14" y="10" width="2" height="2" fill="#166534"/>
  <rect x="16" y="10" width="2" height="2" fill="#faf8f3"/>
  <rect x="18" y="10" width="2" height="2" fill="#166534"/>
  <rect x="6" y="12" width="2" height="2" fill="#faf8f3"/>
  <rect x="8" y="12" width="2" height="2" fill="#166534"/>
  <rect x="10" y="12" width="2" height="2" fill="#faf8f3"/>
  <rect x="6" y="14" width="2" height="2" fill="#166534"/>
  <rect x="8" y="14" width="2" height="2" fill="#faf8f3"/>
  <rect x="10" y="14" width="2" height="2" fill="#166534"/>
  <rect x="6" y="16" width="2" height="2" fill="#faf8f3"/>
  <rect x="8" y="16" width="2" height="2" fill="#166534"/>
  <rect x="10" y="16" width="2" height="2" fill="#faf8f3"/>
  <rect x="6" y="18" width="2" height="2" fill="#166534"/>
  <rect x="8" y="18" width="2" height="2" fill="#faf8f3"/>
  <rect x="10" y="18" width="2" height="2" fill="#166534"/>
  <rect x="12" y="20" width="2" height="2" fill="#166534"/>
  <rect x="14" y="20" width="2" height="2" fill="#faf8f3"/>
  <rect x="16" y="20" width="2" height="2" fill="#166534"/>
  <rect x="18" y="20" width="2" height="2" fill="#faf8f3"/>
  <rect x="12" y="22" width="2" height="2" fill="#faf8f3"/>
  <rect x="14" y="22" width="2" height="2" fill="#166534"/>
  <rect x="16" y="22" width="2" height="2" fill="#faf8f3"/>
  <rect x="18" y="22" width="2" height="2" fill="#166534"/>
  <rect x="12" y="24" width="2" height="2" fill="#166534"/>
  <rect x="14" y="24" width="2" height="2" fill="#faf8f3"/>
  <rect x="16" y="24" width="2" height="2" fill="#166534"/>
  <rect x="18" y="24" width="2" height="2" fill="#faf8f3"/>
  <rect x="20" y="12" width="2" height="2" fill="#166534"/>
  <rect x="22" y="12" width="2" height="2" fill="#faf8f3"/>
  <rect x="24" y="12" width="2" height="2" fill="#166534"/>
  <rect x="20" y="14" width="2" height="2" fill="#faf8f3"/>
  <rect x="22" y="14" width="2" height="2" fill="#166534"/>
  <rect x="24" y="14" width="2" height="2" fill="#faf8f3"/>
  <rect x="20" y="16" width="2" height="2" fill="#166534"/>
  <rect x="22" y="16" width="2" height="2" fill="#faf8f3"/>
  <rect x="24" y="16" width="2" height="2" fill="#166534"/>
  <rect x="20" y="18" width="2" height="2" fill="#faf8f3"/>
  <rect x="22" y="18" width="2" height="2" fill="#166534"/>
  <rect x="24" y="18" width="2" height="2" fill="#faf8f3"/>
</svg>
